<?xml version="1.0" encoding="UTF-8"?>
<svg id="Layer_1" data-name="Layer 1" xmlns="http://www.w3.org/2000/svg" viewBox="0 0 1874.57 1937.47">
  <g>
    <g>
      <path d="M1070.33,935.85c.07-3.75.01-6.98.05-9.31-21.5,6.02-44.17,9.25-67.59,9.25h-175.38s-.04.03-.07.04c-15.7,9.06-30.34,15.52-35.6,17.77h210.94c23.8,0,46.86-3.12,68.82-8.95-.46-1.62-1.25-4.78-1.17-8.81Z" style="fill: #80cccd;"/>
      <path d="M1002.69,417.71h0c-147.81,0-267.64,119.82-267.64,267.64v231.41c3.58-.58,15.12-4.06,17.74-4.91v-226.64c0-138.07,111.93-250.01,250.01-250.01h0c138.07,0,250.01,111.93,250.01,250.01v.58c0,93.94-51.82,175.76-128.42,218.48v11.18h16.09c77.8-46.81,129.85-132.06,129.85-229.48v-.63c0-147.81-119.82-267.64-267.64-267.64Z" style="fill: #80cccd;"/>
    </g>
    <path d="M869.39,495.13l-14.37,10.89c48.34,45.84,78.49,110.67,78.49,182.54,0,138.93-112.62,251.55-251.55,251.55s-251.55-112.62-251.55-251.55,112.62-251.55,251.55-251.55c47.78,0,92.45,13.32,130.49,36.45l14.17-12.17c-41.79-26.66-91.42-42.11-144.66-42.11-148.77,0-269.37,120.6-269.37,269.37s120.6,269.37,269.37,269.37,269.37-120.6,269.37-269.37c0-75.91-31.41-144.47-81.93-193.44Z" style="fill: #00869f;"/>
    <g>
      <path d="M412.31,1123.34c0-29.04,16.92-48.29,46.12-48.29s46.12,19.25,46.12,48.29-16.46,48.6-46.12,48.6-46.12-19.72-46.12-48.6M490.42,1123.19c0-21.12-10.25-35.56-31.99-35.56s-31.99,14.44-31.99,35.56,9.94,36.34,31.99,36.34,31.99-14.6,31.99-36.34" style="fill: #fff;"/>
      <path d="M543.04,1097.57h22.05v11.18h-22.05v61.33h-13.51v-61.33h-13.04v-11.18h13.04v-4.66c0-14.75,7.92-24.53,24.07-24.53,5.43,0,9.16.62,12.11,1.24l-.62,10.09c-3.42-.47-6.37-.93-9.47-.93-8.85,0-12.58,4.97-12.58,14.44v4.35Z" style="fill: #fff;"/>
      <path d="M602.77,1097.57h22.05v11.18h-22.05v61.33h-13.51v-61.33h-13.04v-11.18h13.04v-4.66c0-14.75,7.92-24.53,24.07-24.53,5.43,0,9.16.62,12.11,1.24l-.62,10.09c-3.42-.47-6.37-.93-9.47-.93-8.85,0-12.58,4.97-12.58,14.44v4.35Z" style="fill: #fff;"/>
      <path d="M639.45,1071.33h15.53v12.27h-15.53v-12.27ZM640.38,1097.57h13.51v72.51h-13.51v-72.51Z" style="fill: #fff;"/>
      <path d="M707.29,1107.66c-13.66,0-22.05,8.85-22.05,26.24,0,15.99,7.92,26.09,22.67,26.09,13.35,0,17.7-8.08,20.34-17.86l12.42,3.26c-3.26,16.61-13.2,26.55-32.61,26.55-22.83,0-36.64-13.82-36.64-37.89s14.44-38.35,36.18-38.35c20.34,0,29.81,9.63,32.76,26.71l-12.58,2.64c-2.48-10.71-7.45-17.39-20.5-17.39" style="fill: #fff;"/>
      <path d="M753.95,1134.37c0-24.22,14.13-38.66,36.02-38.66s32.61,13.35,32.61,33.38c0,2.17-.16,5.44-.47,8.69h-54.66c1.09,14.75,8.85,22.83,22.82,22.83,13.04,0,17.55-6.52,19.87-14.6l11.8,3.26c-3.57,13.82-12.89,22.51-31.68,22.51-22.52,0-36.33-13.35-36.33-37.42M767.62,1128h42.39c-.62-13.82-6.99-21.58-20.34-21.58s-20.5,7.14-22.05,21.58" style="fill: #fff;"/>
      <path d="M874.29,1133.59c0-23.76,14.29-37.89,36.34-37.89s36.33,14.13,36.33,37.89-13.35,38.35-36.33,38.35-36.34-14.75-36.34-38.35M887.8,1133.44c0,16.3,7.3,26.71,22.67,26.71s22.98-10.4,22.98-26.71-7.92-26.09-22.82-26.09-22.83,9.78-22.83,26.09" style="fill: #fff;"/>
      <path d="M982.92,1097.57h22.05v11.18h-22.05v61.33h-13.51v-61.33h-13.04v-11.18h13.04v-4.66c0-14.75,7.92-24.53,24.07-24.53,5.43,0,9.16.62,12.11,1.24l-.62,10.09c-3.42-.47-6.37-.93-9.47-.93-8.85,0-12.58,4.97-12.58,14.44v4.35Z" style="fill: #fff;"/>
      <path d="M1059.16,1076.92h36.33c31.52,0,46.58,16.3,46.58,45.96s-17.55,47.2-46.27,47.2h-36.65v-93.16ZM1073.44,1088.87v69.25h21.12c23.91,0,33.38-13.2,33.38-35.25,0-23.45-10.25-34-34.31-34h-20.19Z" style="fill: #fff;"/>
      <path d="M1159.76,1071.33h15.53v12.27h-15.53v-12.27ZM1160.69,1097.57h13.51v72.51h-13.51v-72.51Z" style="fill: #fff;"/>
      <path d="M1223.66,1196.32c-27.33.15-35.4-5.9-35.4-15.53,0-6.37,6.21-10.87,16.3-13.04v-.78c-5.43-1.09-9-4.04-9-9.16,0-3.73,3.1-6.99,7.45-9.32l5.43-3.42c-10.4-3.57-15.99-11.49-15.99-22.2,0-16.46,11.64-25.31,31.36-25.31h35.25v10.71h-8.7c-3.88,0-8.54-.31-15.06-.93v1.4c9.94,2.02,18.17,6.21,18.17,16.77,0,13.51-10.56,21.58-30.74,21.58-4.66,0-8.7-.47-12.27-1.55l-2.02,3.26c-1.24,2.02-2.17,3.42-2.17,4.97,0,3.1,2.64,4.35,7.61,4.35,8.07,0,16.77-.15,24.69-.15,14.75,0,22.36,6.37,22.36,17.39,0,14.28-9.16,21.12-37.27,20.96M1249.74,1175.83c0-4.66-3.26-8.23-11.33-8.23h-26.09c-9.01,0-13.2,4.81-13.2,9.32,0,6.52,5.28,9.32,25,9.32,20.81,0,25.62-3.57,25.62-10.4M1204.87,1122.88c0,9.01,4.97,14.44,18.17,14.44s18.63-5.28,18.63-14.44-6.37-14.6-18.94-14.6-17.86,5.9-17.86,14.6" style="fill: #fff;"/>
      <path d="M1274.98,1071.33h15.53v12.27h-15.53v-12.27ZM1275.91,1097.57h13.51v72.51h-13.51v-72.51Z" style="fill: #fff;"/>
      <path d="M1315.49,1108.75h-11.03v-11.18h11.03v-20.34h13.51v20.34h23.14v11.18h-23.14v38.2c0,8.23,3.1,12.42,11.18,12.42,3.88,0,7.14-.78,11.02-1.86l1.71,11.96c-4.97,1.55-8.85,2.48-15.53,2.48-15.22,0-21.89-9.94-21.89-23.45v-39.75Z" style="fill: #fff;"/>
      <path d="M1414.18,1152.85h-1.4c-3.57,11.96-12.89,18.79-25.77,18.79-13.66,0-22.52-6.21-22.52-20.19,0-12.58,8.07-21.74,25.78-21.74h23.29v-5.9c0-10.87-4.19-16.77-15.99-16.77-9.78,0-15.22,4.81-17.55,14.44l-12.73-3.11c2.95-13.97,13.35-22.51,30.75-22.51,20.18,0,29.04,9.78,29.04,27.8v46.43h-12.89v-17.24ZM1413.56,1143.07v-4.04h-21.27c-9.47,0-14.91,3.73-14.91,10.87,0,5.74,3.57,10.87,14.28,10.87,13.35,0,21.89-7.45,21.89-17.7" style="fill: #fff;"/>
      <rect x="1448.25" y="1070.4" width="13.51" height="99.69" style="fill: #fff;"/>
      <path d="M464.19,1305.7h-1.46c-3.73,12.48-13.46,19.62-26.91,19.62-14.27,0-23.51-6.48-23.51-21.07,0-13.13,8.43-22.7,26.91-22.7h24.32v-6.16c0-11.35-4.38-17.51-16.7-17.51-10.21,0-15.89,5.02-18.32,15.08l-13.29-3.24c3.08-14.59,13.94-23.51,32.1-23.51,21.07,0,30.32,10.21,30.32,29.02v48.47h-13.46v-17.99ZM463.54,1295.49v-4.22h-22.21c-9.89,0-15.56,3.89-15.56,11.35,0,6,3.73,11.35,14.92,11.35,13.94,0,22.86-7.78,22.86-18.48" style="fill: #fff;"/>
      <path d="M515.41,1323.7h-14.1v-75.71h13.78v19.62h1.46c4.22-13.46,14.27-21.56,27.4-21.56,16.86,0,24.48,11.02,24.48,27.56v50.09h-14.1v-46.69c0-10.37-4.21-18.16-16.37-18.16-13.46,0-22.53,8.59-22.53,21.56v43.29Z" style="fill: #fff;"/>
      <path d="M645.75,1303.43h-.97c-3.73,12.97-13.13,22.21-27.4,22.21-18.48,0-29.02-13.94-29.02-39.56s10.86-40.04,29.34-40.04c14.91,0,23.34,9.08,27.07,22.05h.97v-48.47h14.1v104.08h-14.1v-20.27ZM645.75,1289.01v-5.84c0-14.43-8.59-24.32-22.21-24.32s-21.24,8.76-21.24,27.24,6.81,26.91,21.24,26.91c13.46,0,22.21-9.24,22.21-23.99" style="fill: #fff;"/>
      <rect x="727.95" y="1226.43" width="14.91" height="97.27" style="fill: #fff;"/>
      <path d="M782.1,1323.7h-14.1v-75.71h13.78v19.62h1.46c4.21-13.46,14.27-21.56,27.4-21.56,16.86,0,24.48,11.02,24.48,27.56v50.09h-14.1v-46.69c0-10.37-4.21-18.16-16.37-18.16-13.45,0-22.53,8.59-22.53,21.56v43.29Z" style="fill: #fff;"/>
      <path d="M872.93,1323.7h-14.1v-75.71h13.78v19.62h1.46c4.21-13.46,14.27-21.56,27.4-21.56,16.86,0,24.48,11.02,24.48,27.56v50.09h-14.1v-46.69c0-10.37-4.21-18.16-16.37-18.16-13.45,0-22.53,8.59-22.53,21.56v43.29Z" style="fill: #fff;"/>
      <path d="M945.35,1285.6c0-24.8,14.91-39.55,37.93-39.55s37.94,14.75,37.94,39.55-13.94,40.04-37.94,40.04-37.93-15.4-37.93-40.04M959.46,1285.44c0,17.02,7.62,27.88,23.67,27.88s23.99-10.86,23.99-27.88-8.27-27.24-23.83-27.24-23.83,10.21-23.83,27.24" style="fill: #fff;"/>
      <path d="M1059.24,1323.7l-29.99-75.71h15.4l10.21,29.02c4.05,11.67,8.43,23.34,11.84,34.53h3.24c3.4-11.02,7.78-23.02,11.83-34.53l10.05-29.02h15.08l-29.67,75.71h-17.99Z" style="fill: #fff;"/>
      <path d="M1166.88,1305.7h-1.46c-3.73,12.48-13.46,19.62-26.91,19.62-14.27,0-23.51-6.48-23.51-21.07,0-13.13,8.43-22.7,26.91-22.7h24.32v-6.16c0-11.35-4.38-17.51-16.7-17.51-10.21,0-15.89,5.02-18.32,15.08l-13.29-3.24c3.08-14.59,13.94-23.51,32.1-23.51,21.07,0,30.32,10.21,30.32,29.02v48.47h-13.46v-17.99ZM1166.23,1295.49v-4.22h-22.21c-9.89,0-15.56,3.89-15.56,11.35,0,6,3.73,11.35,14.91,11.35,13.94,0,22.86-7.78,22.86-18.48" style="fill: #fff;"/>
      <path d="M1207.57,1259.66h-11.51v-11.67h11.51v-21.24h14.1v21.24h24.16v11.67h-24.16v39.88c0,8.59,3.24,12.97,11.67,12.97,4.05,0,7.46-.81,11.51-1.95l1.78,12.48c-5.19,1.62-9.24,2.59-16.21,2.59-15.89,0-22.86-10.38-22.86-24.48v-41.5Z" style="fill: #fff;"/>
      <path d="M1263.47,1220.59h16.21v12.81h-16.21v-12.81ZM1264.44,1247.99h14.1v75.71h-14.1v-75.71Z" style="fill: #fff;"/>
      <path d="M1298.8,1285.6c0-24.8,14.91-39.55,37.93-39.55s37.94,14.75,37.94,39.55-13.94,40.04-37.94,40.04-37.93-15.4-37.93-40.04M1312.9,1285.44c0,17.02,7.62,27.88,23.67,27.88s23.99-10.86,23.99-27.88-8.27-27.24-23.83-27.24-23.83,10.21-23.83,27.24" style="fill: #fff;"/>
      <path d="M1408.75,1323.7h-14.1v-75.71h13.78v19.62h1.46c4.21-13.46,14.27-21.56,27.4-21.56,16.86,0,24.48,11.02,24.48,27.56v50.09h-14.1v-46.69c0-10.37-4.21-18.16-16.37-18.16-13.45,0-22.53,8.59-22.53,21.56v43.29Z" style="fill: #fff;"/>
    </g>
    <path d="M1114.87,424.57h331.15c8.97,0,16.24,7.27,16.24,16.22v496.5c0,8.96-7.27,16.22-16.24,16.22h-342.02c-8.97,0-16.24-7.27-16.24-16.22v-467.04c4.59,1.58,15.58,6.55,19.2,8.54v455.52h336.08v-490.54h-291.1" style="fill: #08a279;"/>
  </g>
  <g>
    <path d="M757.71,1468.73c-1.99-7.07-4.86-14.69-14.47-14.69-8.51,0-12.26,6.19-12.26,12.15,0,8.07,5.3,11.82,14.03,16.35,8.62,4.42,19.11,9.61,19.11,21.99,0,11.6-9.83,20.88-24.53,20.88-4.53,0-8.07-.88-10.83-1.66-2.76-.99-4.42-1.77-5.41-2.32-.88-2.32-2.32-11.82-2.98-17.12l3.2-.77c1.77,6.74,6.74,17.9,18.12,17.9,8.29,0,13.26-5.19,13.26-13.26s-6.08-12.04-14.36-16.46c-7.07-3.76-18.23-9.28-18.23-21.77,0-10.61,8.51-19.67,22.76-19.67,5.08,0,9.72,1.22,13.92,2.54.44,3.98.99,8.29,1.88,15.25l-3.2.66Z" style="fill: #fff;"/>
    <path d="M831.85,1523.75v-2.87c6.52-.66,7.73-1.1,7.73-8.95v-18.45c0-7.84-2.76-12.82-9.72-12.82-3.98,0-8.18,2.21-12.37,5.74.22,1.33.33,2.54.33,4.64v21.54c0,6.96.99,7.62,7.07,8.29v2.87h-23.64v-2.87c6.85-.66,7.84-1.22,7.84-8.51v-19c0-8.18-2.87-12.71-9.61-12.71-4.42,0-8.73,2.98-12.04,5.74v25.96c0,7.18.88,7.84,6.3,8.51v2.87h-23.31v-2.87c7.29-.66,8.29-1.33,8.29-8.51v-22.87c0-7.07-.33-7.62-6.74-8.62v-2.54c4.86-.88,10.5-2.32,15.36-4.53v8.95c2.32-1.55,4.75-3.54,8.07-5.64,2.87-1.77,5.52-2.98,9.06-2.98,5.3,0,10.05,3.31,12.26,9.06,3.2-2.43,6.41-4.53,9.17-6.19,2.32-1.55,5.19-2.87,8.29-2.87,8.62,0,14.03,6.08,14.03,16.9v21.32c0,7.4.88,7.84,7.18,8.51v2.87h-23.53Z" style="fill: #fff;"/>
    <path d="M861.46,1523.75v-2.87c6.96-.66,7.73-1.33,7.73-8.84v-22.76c0-6.85-.33-7.29-6.96-8.4v-2.65c5.63-.88,10.83-2.32,15.69-4.31v38.12c0,7.51.77,8.18,7.84,8.84v2.87h-24.31ZM867.31,1458.89c0-3.31,2.65-5.74,5.64-5.74s5.52,2.43,5.52,5.74c0,2.98-2.43,5.64-5.64,5.64-2.87,0-5.52-2.65-5.52-5.64Z" style="fill: #fff;"/>
    <path d="M911.62,1523.64c-1.88.99-3.65,1.44-4.64,1.44-6.96,0-10.83-4.42-10.83-13.15v-32.15h-7.62l-.44-1.1,2.98-3.2h5.08v-8.07l7.18-7.29,1.55.22v15.14h12.48c1,1.1.66,3.53-.66,4.31h-11.82v28.4c0,8.95,3.65,10.61,6.41,10.61s5.3-1.1,6.85-1.88l.99,2.87-7.51,3.87Z" style="fill: #fff;"/>
    <path d="M953.93,1523.75v-2.87c6.41-.66,7.29-1.33,7.29-8.51v-18.34c0-9.06-3.43-13.59-10.83-13.59-4.2,0-8.4,2.1-11.49,5.63v26.3c0,7.07.55,7.84,7.07,8.51v2.87h-23.42v-2.87c6.63-.55,7.62-1.22,7.62-8.51v-52.7c0-6.96-.22-7.51-7.51-8.18v-2.54c5.3-.77,11.93-2.54,16.24-3.87v37.12c3.87-3.98,9.83-8.07,15.8-8.07,8.95,0,15.25,5.63,15.25,18.89v19.34c0,7.29.77,7.95,7.29,8.51v2.87h-23.31Z" style="fill: #fff;"/>
    <path d="M1011.16,1488.5c-2.1-6.52-5.97-10.94-11.38-10.94-4.2,0-7.18,3.31-7.18,7.62,0,4.97,4.42,7.51,9.39,9.61,8.29,3.43,13.92,7.4,13.92,15.03,0,10.05-9.39,15.25-18.23,15.25-5.64,0-10.72-2.1-12.71-3.76-.77-1.55-1.77-9.06-1.77-13.04l2.87-.55c1.99,7.29,6.96,13.7,13.59,13.7,4.09,0,7.84-3.09,7.84-7.73s-3.2-7.51-8.73-10.05c-6.63-3.09-13.81-6.74-13.81-15.25,0-7.73,6.63-14.25,16.79-14.25,4.53,0,7.51.99,9.83,1.88.88,2.54,2.1,9.06,2.43,11.82l-2.87.66Z" style="fill: #fff;"/>
    <path d="M1072.37,1498.78c0,17.79-13.04,26.3-23.98,26.3-15.14,0-24.2-12.15-24.2-24.42,0-18.23,14.14-26.52,24.2-26.52,13.7,0,23.98,10.94,23.98,24.64ZM1034.48,1497.12c0,13.92,6.08,24.31,15.14,24.31,6.85,0,12.49-5.08,12.49-20.22,0-12.93-5.19-23.42-14.81-23.42-6.85,0-12.82,6.85-12.82,19.34Z" style="fill: #fff;"/>
    <path d="M1109.94,1523.75v-2.87c6.52-.66,7.29-1.55,7.29-9.17v-18.45c0-7.62-2.65-12.6-10.05-12.6-4.42,0-8.73,2.76-12.04,5.63v25.96c0,7.51.66,7.95,7.18,8.62v2.87h-23.98v-2.87c7.51-.77,8.07-1.33,8.07-8.62v-22.87c0-7.07-.66-7.4-6.63-8.51v-2.54c5.3-.99,10.5-2.32,15.36-4.53v8.84c2.21-1.66,4.64-3.32,7.4-5.19,3.09-1.99,5.97-3.31,9.17-3.31,8.73,0,14.25,6.08,14.25,16.79v21.32c0,7.51.55,7.95,6.96,8.62v2.87h-22.98Z" style="fill: #fff;"/>
    <path d="M1139.11,1523.75v-2.87c6.96-.66,7.73-1.33,7.73-8.84v-22.76c0-6.85-.33-7.29-6.96-8.4v-2.65c5.63-.88,10.83-2.32,15.69-4.31v38.12c0,7.51.77,8.18,7.84,8.84v2.87h-24.31ZM1144.96,1458.89c0-3.31,2.65-5.74,5.64-5.74s5.52,2.43,5.52,5.74c0,2.98-2.43,5.64-5.64,5.64-2.87,0-5.52-2.65-5.52-5.64Z" style="fill: #fff;"/>
    <path d="M1203.96,1525.08c-1.66,0-3.98-.99-5.19-2.1-1.44-1.55-2.1-3.09-2.65-4.97-4.42,2.98-9.72,7.07-13.04,7.07-7.84,0-13.26-6.52-13.26-13.48,0-5.41,2.87-8.84,8.95-10.94,6.63-2.21,14.69-5.19,17.12-7.18v-1.99c0-7.95-3.76-12.49-9.28-12.49-2.21,0-3.87.88-4.97,2.21-1.44,1.44-2.43,3.87-3.31,7.29-.44,1.77-1.66,2.54-3.2,2.54-1.99,0-4.86-2.21-4.86-4.75,0-1.66,1.44-2.87,3.53-4.42,3.09-2.21,10.28-6.52,16.57-7.73,3.31,0,6.63.99,9.06,2.98,3.87,3.2,4.97,7.73,4.97,13.48v20.55c0,4.97,1.99,6.63,3.87,6.63,1.33,0,2.87-.55,3.98-1.22l1.1,2.87-9.39,5.64ZM1195.89,1497.23c-2.32,1.22-7.62,3.53-9.94,4.64-4.31,1.99-6.74,4.09-6.74,8.07,0,5.74,4.42,8.51,7.84,8.51,2.87-.11,6.74-1.99,8.84-3.98v-17.24Z" style="fill: #fff;"/>
    <path d="M1247.82,1523.75v-2.87c6.52-.66,7.29-1.55,7.29-9.17v-18.45c0-7.62-2.65-12.6-10.05-12.6-4.42,0-8.73,2.76-12.04,5.63v25.96c0,7.51.66,7.95,7.18,8.62v2.87h-23.98v-2.87c7.51-.77,8.07-1.33,8.07-8.62v-22.87c0-7.07-.66-7.4-6.63-8.51v-2.54c5.3-.99,10.5-2.32,15.36-4.53v8.84c2.21-1.66,4.64-3.32,7.4-5.19,3.09-1.99,5.97-3.31,9.17-3.31,8.73,0,14.25,6.08,14.25,16.79v21.32c0,7.51.55,7.95,6.96,8.62v2.87h-22.98Z" style="fill: #fff;"/>
    <path d="M678.68,1498.34c-3.33-5.72-8.58-5.78-9.23-5.77,0,0,0-.01,0-.02l22.17-4.62-22.17-4.62h0c.23-.22,4.54-4.02,11-4.12,4.88-.07,9.1-6.04,6.41-10.63,0,0-.8,7.21-9.9,4.81-6.4-1.69-10.16,1.98-10.61,2.45h0s12.41-18.95,12.41-18.95l-18.94,12.41s0,0,0,0c.01-.28.36-6.04,4.87-10.69,3.4-3.5,2.16-10.71-2.99-12.05,0,0,4.53,5.66-3.6,10.4-5.72,3.33-5.78,8.59-5.77,9.23h-.01s-4.62-22.17-4.62-22.17l-4.62,22.17s0,0,0,0c-.19-.2-4.02-4.52-4.11-11.01-.07-4.88-6.04-9.1-10.63-6.41,0,0,7.21.8,4.8,9.9-1.69,6.42,2,10.18,2.45,10.61h0s-18.95-12.41-18.95-12.41h0l10.11,15.44,2.3,3.51s0,0,0,0c-.19,0-6-.32-10.69-4.88-3.5-3.4-10.71-2.16-12.05,2.99,0,0,5.66-4.53,10.4,3.6,3.34,5.74,8.62,5.78,9.24,5.77,0,0,0,0,0,0l-22.17,4.62,22.17,4.62h0c-.14.14-4.48,4.02-11.01,4.12-4.88.07-9.1,6.04-6.41,10.63,0,0,.8-7.21,9.9-4.81,6.43,1.7,10.19-2.01,10.61-2.46,0,0,0,.01.01.02l-12.41,18.94,18.94-12.41c0,.19-.33,6-4.88,10.69-3.4,3.5-2.16,10.7,2.99,12.04,0,0-4.53-5.66,3.6-10.4,5.73-3.34,5.78-8.61,5.77-9.24,0,0,.01,0,.02,0l4.62,22.16,4.62-22.16h0c.17.18,4.01,4.5,4.11,11.01.07,4.87,6.04,9.1,10.63,6.4,0,0-7.21-.8-4.8-9.9,1.69-6.41-2-10.18-2.45-10.61,0,0,.01,0,.02-.01l18.94,12.41-6.55-10-5.86-8.94h0c.26.01,6.03.35,10.69,4.88,3.5,3.4,10.71,2.16,12.05-2.99,0,0-5.66,4.53-10.4-3.6Z" style="fill: #fff;"/>
  </g>
</svg>